<?xml version="1.0" encoding="UTF-8"?>
<!-- Created with Inkscape (http://www.inkscape.org/) -->
<svg version="1.1" viewBox="0 0 47.281 31.92" xml:space="preserve" xmlns="http://www.w3.org/2000/svg"><g transform="translate(-17.607 -2.8327)" fill="#fdede4"><path d="m36.398 34.252c-3.5811-0.78398-5.3565-2.0871-13.733-10.08-5.1788-4.9418-5.5278-5.4994-4.7374-7.5691 0.60113-1.574 1.7608-2.3843 3.6033-2.5175 1.7722-0.12819 3.2871 0.8584 7.4122 4.8271 4.9487 4.7612 6.3775 5.9757 8.0056 6.8051 5.9785 3.0455 12.336-0.80619 12.399-7.5119l0.01752-1.8718 7.4232 7.4232-0.96854 1.8431c-3.803 7.2372-11.079 10.478-19.422 8.6515zm22.833-11.063c-1.1683-0.50901-3.7223-2.684-7.9961-6.8097-3.0827-2.9758-4.1355-3.82-5.7736-4.6296-5.7944-2.8637-11.752 0.60397-12.265 7.1386l-0.16919 2.1569-7.2635-7.1438 0.75926-1.5875c3.1736-6.6356 9.2688-10.072 16.669-9.3984 5.8728 0.53473 6.8809 1.1416 15.675 9.4352 2.9726 2.8035 5.4397 5.3498 5.6857 5.8681 1.4529 3.0617-2.0951 6.3756-5.3212 4.9701z" stroke-width=".26458"/></g></svg>
