<?xml version="1.0" encoding="UTF-8"?>
<!-- Created with Inkscape (http://www.inkscape.org/) -->
<svg width="80mm" height="79.496mm" version="1.1" viewBox="0 0 80 79.496" xml:space="preserve" xmlns="http://www.w3.org/2000/svg"><g transform="translate(-.52917 -.52917)" fill="#80aad4"><path d="m33.775 79.596c-15.365-2.2425-27.634-13.079-32.509-28.715l-0.72628-2.3291-0.00503-8.0962-0.00503-8.0963 0.7291-2.5509c6.3624-22.26 28.961-34.341 50.977-27.253 3.4304 1.1044 4.1508 0.51141-8.1613 6.7184-10.939 5.5147-12.958 6.644-14.84 8.3006-1.4026 1.2346-2.4021 3.2802-2.5675 5.2542-0.13441 1.6051 0.23662 4.096 0.61011 4.096 0.11532 0 11.897-5.8451 26.183-12.989 14.285-7.144 26.03-12.932 26.1-12.862 0.06992 0.069919 0.17094 1.4987 0.22444 3.175 0.15955 4.9993-0.60602 6.893-3.9401 9.7464-1.8556 1.5881-3.34 2.3472-29.399 15.034-16.815 8.1868-17.298 8.4667-18.731 10.865-1.2686 2.1235-1.5223 4.4689-0.76234 7.0487 0.15777 0.53558 0.27845 0.51002 2.4735-0.52392 3.273-1.5417 9.3451-4.4118 12.029-5.6856 1.403-0.66592 4.2478-2.0101 6.3217-2.9871 2.074-0.97701 5.6238-2.6554 7.8885-3.7297 2.2647-1.0743 4.9098-2.3232 5.8781-2.7752 3.7304-1.7417 5.3827-2.5185 7.4168-3.4868 2.1354-1.0166 5.0024-2.3714 8.429-3.9832 1.037-0.48776 2.1679-1.0327 2.5132-1.211l0.62781-0.32414-0.07327 4.063c-0.07185 3.9858-0.08504 4.0831-0.69224 5.116-0.68874 1.1717-2.8803 2.954-4.6806 3.8066-0.62319 0.29513-3.8147 1.8428-7.0924 3.4394-3.2776 1.5965-5.9871 2.9028-6.021 2.9028-0.03395 0-2.2433 1.0601-4.9097 2.3558-5.022 2.4404-9.4673 4.581-12.722 6.1265-6.5029 3.0874-12.74 6.2025-13.591 6.7881-3.7772 2.5988-5.2013 6.5334-3.766 10.405 0.173 0.46658 0.56785 0.33347 3.8618-1.3018 1.7494-0.8685 3.6798-1.8039 4.2898-2.0787 0.60999-0.2748 5.0019-2.3715 9.7599-4.6594 9.0643-4.3585 12.092-5.8115 16.858-8.0904 1.586-0.75831 6.0853-2.9167 9.9985-4.7964 3.9132-1.8797 7.1951-3.4176 7.2931-3.4176 0.34396 0-0.14692 4.1301-0.7909 6.6545-5.1659 20.25-24.074 33.023-44.475 30.046z" stroke-width=".22182"/></g></svg>
