<?xml version="1.0" encoding="UTF-8"?>
<!-- Created with Inkscape (http://www.inkscape.org/) -->
<svg width="57.616mm" height="68.033mm" version="1.1" viewBox="0 0 57.616 68.033" xml:space="preserve" xmlns="http://www.w3.org/2000/svg"><g transform="translate(-38.458 19.769)" fill="#b9dec6"><path d="m71.326 47.919c-9.0076-2.0021-16.784-9.4028-19.226-18.297-0.76843-2.7986-0.83351-8.6289-0.12532-11.227 2.3048-8.4557 9.0877-13.919 17.963-14.469 2.9578-0.18323 2.842-0.30652 2.2149 2.358-0.71627 3.0436-2.3258 5.0041-5.5884 6.8068-8.75 4.8349-9.6474 15.83-1.8734 22.953 7.3261 6.7131 18.077 5.276 22.131-2.9581 2.3273-4.7274 1.0265-11.638-2.9982-15.928l-0.78826-0.84026 0.86382-2.0702c0.4751-1.1386 1.0579-2.9017 1.2951-3.9181l0.43126-1.848 2.7923 2.774c4.2076 4.1801 6.0509 7.4271 7.1459 12.588 2.2197 10.461-2.9256 20.073-12.524 23.397-2.9108 1.0079-8.7198 1.3452-11.712 0.68003zm-9.2704-24.391c0.54078-3.6062 2.2245-5.9956 5.6324-7.9931 5.509-3.2291 7.9684-7.8319 7.1882-13.453-1.6902-12.178-16.646-18.28-24.679-10.071-4.8539 4.9605-4.8584 13.378-0.01027 18.921 1.3786 1.576 1.3581 1.3981 0.40656 3.5231-0.41628 0.92964-0.83959 2.0474-0.9407 2.484-0.46897 2.0249-0.72157 2.7781-0.93166 2.7781-0.46417 0-4.3214-3.8418-5.4619-5.44-9.7878-13.716-3.9239-31.069 11.401-33.738 12.216-2.1274 25.31 6.9968 27.935 19.467 2.7222 12.931-5.3288 23.89-18.117 24.662l-2.6158 0.15779z" stroke-width=".26458"/></g></svg>
